<svg data-type="monochrome" xmlns="http://www.w3.org/2000/svg" viewBox="0 0 24 24" width="20" height="20" fill="none" class="aw__l1y2ajet" xmlns:xlink="http://www.w3.org/1999/xlink"><path fill-rule="evenodd" clip-rule="evenodd" d="M20.0005 10.0439C20.0004 11.4492 19.4826 12.8887 18.7915 14.2021C18.0937 15.5284 17.1749 16.8075 16.2759 17.9131C15.3742 19.0219 14.4755 19.9768 13.8032 20.6533C13.4666 20.992 13.1851 21.2623 12.9868 21.4492C12.8876 21.5427 12.8088 21.6161 12.7544 21.666L12.7198 21.6979L12.6919 21.7236L12.6743 21.7393L12.0005 22.3418L11.3267 21.7393L11.3091 21.7236L11.2811 21.6979L11.2466 21.666C11.1921 21.6161 11.1134 21.5427 11.0142 21.4492C10.8158 21.2623 10.5344 20.992 10.1978 20.6533C9.52545 19.9768 8.62674 19.0219 7.7251 17.9131C6.82612 16.8075 5.90731 15.5284 5.20947 14.2021C4.51839 12.8887 4.0006 11.4492 4.00049 10.0439C4.00049 5.6075 7.57638 2 12.0005 2C16.4246 2 20.0005 5.6075 20.0005 10.0439ZM12.0005 13C13.7936 13 15.2368 11.5391 15.2368 9.75C15.2367 7.96099 13.7935 6.5 12.0005 6.5C10.2076 6.50015 8.76521 7.96108 8.76514 9.75C8.76514 11.539 10.2075 12.9998 12.0005 13Z" fill="#FFBA00"></path></svg>
