<svg xmlns:xlink="http://www.w3.org/1999/xlink" xmlns="http://www.w3.org/2000/svg" width="24" height="24" viewBox="0 0 24 24"><path fill="#222222" fill-rule="evenodd" d="M22.43 8.773l-1.698-2.831A4.019 4.019 0 0017.302 4H3c-1.103 0-2 .897-2 2v11c0 1.103.897 2 2 2h1.184A2.996 2.996 0 007 21a2.996 2.996 0 002.816-2h4.369a2.996 2.996 0 002.816 2 2.996 2.996 0 002.816-2H21c1.103 0 2-.897 2-2v-6.169c0-.726-.197-1.437-.57-2.058zM17.302 6c.698 0 1.355.372 1.715.971l1.698 2.832c.037.062.055.132.085.197H16V6h1.302zM3 6h11v4h-2V9a1 1 0 10-2 0v1H7V9a1 1 0 10-2 0v1H3V6zm4 13a1.001 1.001 0 010-2 1.001 1.001 0 010 2zm10 0a1.001 1.001 0 010-2 1.001 1.001 0 010 2zm4-2h-1.184A2.996 2.996 0 0017 15a2.996 2.996 0 00-2.816 2H9.816A2.996 2.996 0 007 15a2.996 2.996 0 00-2.816 2H3v-5h18v5z"/></svg>